<mxfile host="app.diagrams.net" modified="2023-05-31T08:51:37.873Z" agent="Mozilla/5.0 (Windows NT 10.0; Win64; x64) AppleWebKit/537.36 (KHTML, like Gecko) Chrome/114.0.0.0 Safari/537.36" etag="5EDE5xDWXReD9PlhTBfF" version="21.3.6" type="github">
  <diagram name="第 1 页" id="jHwW3m-df0nGdAknc-LR">
    <mxGraphModel dx="880" dy="452" grid="0" gridSize="10" guides="1" tooltips="1" connect="1" arrows="1" fold="1" page="1" pageScale="1" pageWidth="827" pageHeight="1169" math="0" shadow="0">
      <root>
        <mxCell id="0" />
        <mxCell id="1" parent="0" />
        <mxCell id="WEB5KwZ6paxdGkeuZglE-5" value="Actor" style="shape=umlActor;verticalLabelPosition=bottom;verticalAlign=top;html=1;outlineConnect=0;" parent="1" vertex="1">
          <mxGeometry x="130" y="70" width="30" height="60" as="geometry" />
        </mxCell>
        <mxCell id="WEB5KwZ6paxdGkeuZglE-7" value="" style="whiteSpace=wrap;html=1;aspect=fixed;" parent="1" vertex="1">
          <mxGeometry x="477" y="60" width="130" height="130" as="geometry" />
        </mxCell>
        <mxCell id="WEB5KwZ6paxdGkeuZglE-11" value="HTML" style="rounded=0;whiteSpace=wrap;html=1;" parent="1" vertex="1">
          <mxGeometry x="482" y="155" width="40" height="20" as="geometry" />
        </mxCell>
        <mxCell id="WEB5KwZ6paxdGkeuZglE-12" value="JS" style="rounded=0;whiteSpace=wrap;html=1;" parent="1" vertex="1">
          <mxGeometry x="522" y="155" width="40" height="20" as="geometry" />
        </mxCell>
        <mxCell id="WEB5KwZ6paxdGkeuZglE-13" value="CSS" style="rounded=0;whiteSpace=wrap;html=1;" parent="1" vertex="1">
          <mxGeometry x="562" y="155" width="40" height="20" as="geometry" />
        </mxCell>
        <mxCell id="WEB5KwZ6paxdGkeuZglE-14" value="Model&lt;br&gt;View&lt;br&gt;Controller" style="rounded=0;whiteSpace=wrap;html=1;" parent="1" vertex="1">
          <mxGeometry x="482" y="70" width="120" height="60" as="geometry" />
        </mxCell>
        <mxCell id="WEB5KwZ6paxdGkeuZglE-15" value="浏览器" style="rounded=0;whiteSpace=wrap;html=1;" parent="1" vertex="1">
          <mxGeometry x="270" y="85" width="90" height="40" as="geometry" />
        </mxCell>
        <mxCell id="WEB5KwZ6paxdGkeuZglE-16" value="" style="endArrow=classic;html=1;rounded=0;" parent="1" edge="1">
          <mxGeometry width="50" height="50" relative="1" as="geometry">
            <mxPoint x="186" y="90" as="sourcePoint" />
            <mxPoint x="246" y="90" as="targetPoint" />
          </mxGeometry>
        </mxCell>
        <mxCell id="WEB5KwZ6paxdGkeuZglE-19" value="" style="endArrow=classic;html=1;rounded=0;" parent="1" edge="1">
          <mxGeometry width="50" height="50" relative="1" as="geometry">
            <mxPoint x="243" y="120" as="sourcePoint" />
            <mxPoint x="183" y="120" as="targetPoint" />
          </mxGeometry>
        </mxCell>
        <mxCell id="WEB5KwZ6paxdGkeuZglE-20" value="" style="endArrow=classic;html=1;rounded=0;" parent="1" edge="1">
          <mxGeometry width="50" height="50" relative="1" as="geometry">
            <mxPoint x="387" y="89.5" as="sourcePoint" />
            <mxPoint x="447" y="89.5" as="targetPoint" />
          </mxGeometry>
        </mxCell>
        <mxCell id="WEB5KwZ6paxdGkeuZglE-21" value="" style="endArrow=classic;html=1;rounded=0;" parent="1" edge="1">
          <mxGeometry width="50" height="50" relative="1" as="geometry">
            <mxPoint x="444" y="119.5" as="sourcePoint" />
            <mxPoint x="384" y="119.5" as="targetPoint" />
          </mxGeometry>
        </mxCell>
        <mxCell id="WEB5KwZ6paxdGkeuZglE-22" value="JSP" style="whiteSpace=wrap;html=1;aspect=fixed;" parent="1" vertex="1">
          <mxGeometry x="380" y="220" width="40" height="40" as="geometry" />
        </mxCell>
        <mxCell id="WEB5KwZ6paxdGkeuZglE-23" value="war" style="text;html=1;align=center;verticalAlign=middle;resizable=0;points=[];autosize=1;strokeColor=none;fillColor=none;" parent="1" vertex="1">
          <mxGeometry x="520" y="188" width="40" height="30" as="geometry" />
        </mxCell>
        <mxCell id="WEB5KwZ6paxdGkeuZglE-24" value="服务器" style="text;html=1;align=center;verticalAlign=middle;resizable=0;points=[];autosize=1;strokeColor=none;fillColor=none;" parent="1" vertex="1">
          <mxGeometry x="512" y="218" width="60" height="30" as="geometry" />
        </mxCell>
        <mxCell id="WEB5KwZ6paxdGkeuZglE-25" value="" style="endArrow=none;dashed=1;html=1;rounded=0;" parent="1" edge="1">
          <mxGeometry width="50" height="50" relative="1" as="geometry">
            <mxPoint x="432" y="230" as="sourcePoint" />
            <mxPoint x="482" y="180" as="targetPoint" />
          </mxGeometry>
        </mxCell>
        <mxCell id="WEB5KwZ6paxdGkeuZglE-26" value="url&amp;nbsp;跳转" style="text;html=1;align=center;verticalAlign=middle;resizable=0;points=[];autosize=1;strokeColor=none;fillColor=none;" parent="1" vertex="1">
          <mxGeometry x="384" y="58" width="60" height="30" as="geometry" />
        </mxCell>
        <mxCell id="WEB5KwZ6paxdGkeuZglE-30" value="Actor" style="shape=umlActor;verticalLabelPosition=bottom;verticalAlign=top;html=1;outlineConnect=0;" parent="1" vertex="1">
          <mxGeometry x="130" y="370" width="30" height="60" as="geometry" />
        </mxCell>
        <mxCell id="WEB5KwZ6paxdGkeuZglE-31" value="浏览器" style="rounded=0;whiteSpace=wrap;html=1;" parent="1" vertex="1">
          <mxGeometry x="270" y="385" width="90" height="40" as="geometry" />
        </mxCell>
        <mxCell id="WEB5KwZ6paxdGkeuZglE-32" value="" style="endArrow=classic;html=1;rounded=0;" parent="1" edge="1">
          <mxGeometry width="50" height="50" relative="1" as="geometry">
            <mxPoint x="186" y="399" as="sourcePoint" />
            <mxPoint x="246" y="399" as="targetPoint" />
          </mxGeometry>
        </mxCell>
        <mxCell id="WEB5KwZ6paxdGkeuZglE-33" value="" style="endArrow=classic;html=1;rounded=0;" parent="1" edge="1">
          <mxGeometry width="50" height="50" relative="1" as="geometry">
            <mxPoint x="243" y="415" as="sourcePoint" />
            <mxPoint x="183" y="415" as="targetPoint" />
          </mxGeometry>
        </mxCell>
        <mxCell id="WEB5KwZ6paxdGkeuZglE-35" value="&lt;br&gt;&lt;br&gt;Nginx" style="rounded=0;whiteSpace=wrap;html=1;" parent="1" vertex="1">
          <mxGeometry x="447" y="329" width="130" height="50" as="geometry" />
        </mxCell>
        <mxCell id="WEB5KwZ6paxdGkeuZglE-38" value="HTML" style="rounded=0;whiteSpace=wrap;html=1;" parent="1" vertex="1">
          <mxGeometry x="452" y="334" width="40" height="20" as="geometry" />
        </mxCell>
        <mxCell id="WEB5KwZ6paxdGkeuZglE-39" value="JS" style="rounded=0;whiteSpace=wrap;html=1;" parent="1" vertex="1">
          <mxGeometry x="492" y="334" width="40" height="20" as="geometry" />
        </mxCell>
        <mxCell id="WEB5KwZ6paxdGkeuZglE-40" value="CSS" style="rounded=0;whiteSpace=wrap;html=1;" parent="1" vertex="1">
          <mxGeometry x="532" y="334" width="40" height="20" as="geometry" />
        </mxCell>
        <mxCell id="WEB5KwZ6paxdGkeuZglE-41" value="Model&lt;br&gt;View&lt;br&gt;Controller" style="rounded=0;whiteSpace=wrap;html=1;" parent="1" vertex="1">
          <mxGeometry x="451" y="430" width="120" height="60" as="geometry" />
        </mxCell>
        <mxCell id="WEB5KwZ6paxdGkeuZglE-42" value="服务器" style="text;html=1;align=center;verticalAlign=middle;resizable=0;points=[];autosize=1;strokeColor=none;fillColor=none;" parent="1" vertex="1">
          <mxGeometry x="482" y="488" width="60" height="30" as="geometry" />
        </mxCell>
        <mxCell id="WEB5KwZ6paxdGkeuZglE-43" value="" style="endArrow=classic;html=1;rounded=0;exitX=0.583;exitY=-0.075;exitDx=0;exitDy=0;exitPerimeter=0;" parent="1" edge="1">
          <mxGeometry width="50" height="50" relative="1" as="geometry">
            <mxPoint x="519.96" y="424.5" as="sourcePoint" />
            <mxPoint x="520" y="384" as="targetPoint" />
          </mxGeometry>
        </mxCell>
        <mxCell id="WEB5KwZ6paxdGkeuZglE-44" value="" style="endArrow=classic;html=1;rounded=0;" parent="1" edge="1">
          <mxGeometry width="50" height="50" relative="1" as="geometry">
            <mxPoint x="505.16999999999996" y="385" as="sourcePoint" />
            <mxPoint x="505.16999999999996" y="425" as="targetPoint" />
          </mxGeometry>
        </mxCell>
        <mxCell id="WEB5KwZ6paxdGkeuZglE-45" value="" style="endArrow=classic;html=1;rounded=0;" parent="1" edge="1">
          <mxGeometry width="50" height="50" relative="1" as="geometry">
            <mxPoint x="378" y="387.58000000000004" as="sourcePoint" />
            <mxPoint x="436" y="369" as="targetPoint" />
          </mxGeometry>
        </mxCell>
        <mxCell id="WEB5KwZ6paxdGkeuZglE-46" value="" style="endArrow=classic;html=1;rounded=0;" parent="1" edge="1">
          <mxGeometry width="50" height="50" relative="1" as="geometry">
            <mxPoint x="436" y="381.58000000000004" as="sourcePoint" />
            <mxPoint x="375.5" y="400.16" as="targetPoint" />
          </mxGeometry>
        </mxCell>
        <mxCell id="WEB5KwZ6paxdGkeuZglE-47" value="H5" style="text;html=1;align=center;verticalAlign=middle;resizable=0;points=[];autosize=1;strokeColor=none;fillColor=none;" parent="1" vertex="1">
          <mxGeometry x="383" y="353" width="40" height="30" as="geometry" />
        </mxCell>
        <mxCell id="WEB5KwZ6paxdGkeuZglE-60" value="手机" style="whiteSpace=wrap;html=1;aspect=fixed;" parent="1" vertex="1">
          <mxGeometry x="301" y="448" width="30" height="30" as="geometry" />
        </mxCell>
        <mxCell id="WEB5KwZ6paxdGkeuZglE-61" value="" style="endArrow=classic;html=1;rounded=0;" parent="1" edge="1">
          <mxGeometry width="50" height="50" relative="1" as="geometry">
            <mxPoint x="354" y="456" as="sourcePoint" />
            <mxPoint x="431" y="456" as="targetPoint" />
          </mxGeometry>
        </mxCell>
        <mxCell id="WEB5KwZ6paxdGkeuZglE-62" value="" style="endArrow=classic;html=1;rounded=0;" parent="1" edge="1">
          <mxGeometry width="50" height="50" relative="1" as="geometry">
            <mxPoint x="431" y="468" as="sourcePoint" />
            <mxPoint x="351" y="468" as="targetPoint" />
          </mxGeometry>
        </mxCell>
        <mxCell id="WEB5KwZ6paxdGkeuZglE-63" value="Restful" style="text;html=1;align=center;verticalAlign=middle;resizable=0;points=[];autosize=1;strokeColor=none;fillColor=none;" parent="1" vertex="1">
          <mxGeometry x="447" y="390" width="60" height="30" as="geometry" />
        </mxCell>
        <mxCell id="WEB5KwZ6paxdGkeuZglE-64" value="Json" style="text;html=1;align=center;verticalAlign=middle;resizable=0;points=[];autosize=1;strokeColor=none;fillColor=none;" parent="1" vertex="1">
          <mxGeometry x="515" y="390" width="50" height="30" as="geometry" />
        </mxCell>
        <mxCell id="WEB5KwZ6paxdGkeuZglE-65" value="IOS/Android/小程序" style="text;html=1;align=center;verticalAlign=middle;resizable=0;points=[];autosize=1;strokeColor=none;fillColor=none;" parent="1" vertex="1">
          <mxGeometry x="326" y="471" width="130" height="30" as="geometry" />
        </mxCell>
      </root>
    </mxGraphModel>
  </diagram>
</mxfile>
